<?xml version="1.0" encoding="UTF-8"?>
<svg xmlns="http://www.w3.org/2000/svg" xmlns:xlink="http://www.w3.org/1999/xlink">
    <symbol id="plyr-adblock" viewBox="0 0 512 512">
        <path d="M367.2 412.5L99.5 144.8C77.1 176.1 64 214.5 64 256c0 106 86 192 192 192c41.5 0 79.9-13.1 111.2-35.5zm45.3-45.3C434.9 335.9 448 297.5 448 256c0-106-86-192-192-192c-41.5 0-79.9 13.1-111.2 35.5L412.5 367.2zM0 256a256 256 0 1 1 512 0A256 256 0 1 1 0 256z"/>
    </symbol>
    <symbol id="plyr-airplay" viewBox="0 0 350 270">
        <path d="m346.11,55v121.29c0,30.38-24.62,55-55,55h-7.88c-1.23-2.45-2.88-4.79-4.97-6.96l-30.66-31.78h42.35c9.94,0,18-8.06,18-18V56.61c0-9.94-8.06-18-18-18H55.81c-9.95,0-18,8.06-18,18v117.94c0,9.94,8.05,18,18,18h33.63l-30.66,31.78c-2.09,2.16-3.73,4.5-4.97,6.94-29.83-.63-53.81-25-53.81-54.98V55C0,24.62,24.62,0,55,0h236.11c30.38,0,55,24.62,55,55Z"/>
        <path d="m187.25,158.65l76.11,75.44c12.69,12.57,3.78,34.2-14.08,34.2H97.05c-17.86,0-26.76-21.63-14.08-34.2l76.11-75.44c7.8-7.73,20.36-7.73,28.16,0Z"/>
    </symbol>
    <symbol id="plyr-captions-off" viewBox="0 0 390 310">
        <path d="m220.29,231.12h-31.89c-7.71,0-13.96-6.27-13.96-14v-1.28c0-6.12,3.91-11.32,9.37-13.22l-37.7-29.46h-53.47c-7.71,0-13.96-6.27-13.96-14v-.32c0-7.73,6.25-14,13.96-14h17.22L20.44,74.98v174.07c0,22.09,17.86,40,39.88,40h234.12l-74.15-57.93Zm-64.85-13.98c0,7.73-6.25,14-13.96,14h-48.69c-7.71,0-13.96-6.27-13.96-14v-1.52c0-7.73,6.25-14,13.96-14h48.69c7.71,0,13.96,6.27,13.96,14v1.52Zm37.96-43.98h-.06l36.7,28.68h.07l-36.71-28.68ZM24.43,41.14s-.01.03-.02.04l132.68,103.66h.06L24.43,41.14Zm243.16,189.98h-.07l71.66,55.99h.01s.03-.01.04-.01l-71.64-55.98Z"/>
        <path d="m380.87,282l-18.57-14.51c2.86-5.51,4.48-11.79,4.48-18.44V58.6c0-22.09-17.86-40-39.88-40H60.32c-4.76,0-9.32.84-13.55,2.37L23.95,3.14c-2.71-2.12-5.92-3.14-9.11-3.14C10.43,0,6.06,1.96,3.14,5.7-1.9,12.15-.76,21.47,5.7,26.51l18.73,14.63,132.72,103.7,36.25,28.32,36.71,28.68,37.48,29.28,71.64,55.98,23.39,18.27c6.45,5.04,15.77,3.89,20.81-2.56,5.04-6.45,3.89-15.77-2.56-20.81Zm-72.13-64.88c0,2.56-.69,4.97-1.9,7.04l-28.57-22.32h16.51c7.71,0,13.96,6.27,13.96,14v1.28Zm0-57.96c0,7.73-6.25,14-13.96,14h-48.89c-2.22,0-4.32-.52-6.18-1.45-1.7-.84-3.21-2.02-4.41-3.45-2.11-2.45-3.37-5.63-3.37-9.1v-.32c0-7.73,6.25-14,13.96-14h48.89c7.71,0,13.96,6.27,13.96,14v.32Z"/>
    </symbol>
    <symbol id="plyr-captions-on" viewBox="0 0 350 270">
        <path d="m307.4,0H40C17.91,0,0,17.91,0,40v190.45c0,22.09,17.91,40,40,40h267.4c22.09,0,40-17.91,40-40V40c0-22.09-17.91-40-40-40ZM58.42,140.24c0-7.73,6.27-14,14-14h106.71c7.73,0,14,6.27,14,14v.32c0,7.73-6.27,14-14,14h-106.71c-7.73,0-14-6.27-14-14v-.32Zm76.99,58.3c0,7.73-6.27,14-14,14h-48.84c-7.73,0-14-6.27-14-14v-1.52c0-7.73,6.27-14,14-14h48.84c7.73,0,14,6.27,14,14v1.52Zm153.77-.02c0,7.73-6.27,14-14,14h-106.71c-7.73,0-14-6.27-14-14v-1.28c0-7.73,6.27-14,14-14h106.71c7.73,0,14,6.27,14,14v1.28Zm0-57.96c0,7.73-6.27,14-14,14h-49.04c-7.73,0-14-6.27-14-14v-.32c0-7.73,6.27-14,14-14h49.04c7.73,0,14,6.27,14,14v.32Z"/>
    </symbol>
    <symbol id="plyr-download" viewBox="0 0 512 512">
        <path d="M288 32c0-17.7-14.3-32-32-32s-32 14.3-32 32V274.7l-73.4-73.4c-12.5-12.5-32.8-12.5-45.3 0s-12.5 32.8 0 45.3l128 128c12.5 12.5 32.8 12.5 45.3 0l128-128c12.5-12.5 12.5-32.8 0-45.3s-32.8-12.5-45.3 0L288 274.7V32zM64 352c-35.3 0-64 28.7-64 64v32c0 35.3 28.7 64 64 64H448c35.3 0 64-28.7 64-64V416c0-35.3-28.7-64-64-64H346.5l-45.3 45.3c-25 25-65.5 25-90.5 0L165.5 352H64zm368 56a24 24 0 1 1 0 48 24 24 0 1 1 0-48z"/>
    </symbol>
    <symbol id="plyr-enter-fullscreen" viewBox="0 0 512 512">
        <path d="M200 32H56C42.7 32 32 42.7 32 56V200c0 9.7 5.8 18.5 14.8 22.2s19.3 1.7 26.2-5.2l40-40 79 79-79 79L73 295c-6.9-6.9-17.2-8.9-26.2-5.2S32 302.3 32 312V456c0 13.3 10.7 24 24 24H200c9.7 0 18.5-5.8 22.2-14.8s1.7-19.3-5.2-26.2l-40-40 79-79 79 79-40 40c-6.9 6.9-8.9 17.2-5.2 26.2s12.5 14.8 22.2 14.8H456c13.3 0 24-10.7 24-24V312c0-9.7-5.8-18.5-14.8-22.2s-19.3-1.7-26.2 5.2l-40 40-79-79 79-79 40 40c6.9 6.9 17.2 8.9 26.2 5.2s14.8-12.5 14.8-22.2V56c0-13.3-10.7-24-24-24H312c-9.7 0-18.5 5.8-22.2 14.8s-1.7 19.3 5.2 26.2l40 40-79 79-79-79 40-40c6.9-6.9 8.9-17.2 5.2-26.2S209.7 32 200 32z"/>
    </symbol>
    <symbol id="plyr-exit-fullscreen" viewBox="0 0 512 512">
        <path d="M456 224H312c-13.3 0-24-10.7-24-24V56c0-9.7 5.8-18.5 14.8-22.2s19.3-1.7 26.2 5.2l40 40L442.3 5.7C446 2 450.9 0 456 0s10 2 13.7 5.7l36.7 36.7C510 46 512 50.9 512 56s-2 10-5.7 13.7L433 143l40 40c6.9 6.9 8.9 17.2 5.2 26.2s-12.5 14.8-22.2 14.8zm0 64c9.7 0 18.5 5.8 22.2 14.8s1.7 19.3-5.2 26.2l-40 40 73.4 73.4c3.6 3.6 5.7 8.5 5.7 13.7s-2 10-5.7 13.7l-36.7 36.7C466 510 461.1 512 456 512s-10-2-13.7-5.7L369 433l-40 40c-6.9 6.9-17.2 8.9-26.2 5.2s-14.8-12.5-14.8-22.2V312c0-13.3 10.7-24 24-24H456zm-256 0c13.3 0 24 10.7 24 24V456c0 9.7-5.8 18.5-14.8 22.2s-19.3 1.7-26.2-5.2l-40-40L69.7 506.3C66 510 61.1 512 56 512s-10-2-13.7-5.7L5.7 469.7C2 466 0 461.1 0 456s2-10 5.7-13.7L79 369 39 329c-6.9-6.9-8.9-17.2-5.2-26.2s12.5-14.8 22.2-14.8H200zM56 224c-9.7 0-18.5-5.8-22.2-14.8s-1.7-19.3 5.2-26.2l40-40L5.7 69.7C2 66 0 61.1 0 56s2-10 5.7-13.7L42.3 5.7C46 2 50.9 0 56 0s10 2 13.7 5.7L143 79l40-40c6.9-6.9 17.2-8.9 26.2-5.2s14.8 12.5 14.8 22.2V200c0 13.3-10.7 24-24 24H56z"/>
    </symbol>
    <symbol id="plyr-fast-forward" viewBox="0 0 512 512">
        <path d="M52.5 440.6c-9.5 7.9-22.8 9.7-34.1 4.4S0 428.4 0 416V96C0 83.6 7.2 72.3 18.4 67s24.5-3.6 34.1 4.4L224 214.3V256v41.7L52.5 440.6zM256 352V256 128 96c0-12.4 7.2-23.7 18.4-29s24.5-3.6 34.1 4.4l192 160c7.3 6.1 11.5 15.1 11.5 24.6s-4.2 18.5-11.5 24.6l-192 160c-9.5 7.9-22.8 9.7-34.1 4.4s-18.4-16.6-18.4-29V352z"/>
    </symbol>
    <symbol id="plyr-googlecast" viewBox="0 0 470 360">
        <path d="m461.56,50v258.8c0,27.61-22.39,50-50,50h-180.21c.51-5.97.77-12,.77-18.1,0-11.16-.86-22.12-2.53-32.81h181.09V51.36H51.81v80.06c-10.2-1.52-20.65-2.3-31.27-2.3-6.92,0-13.75.33-20.5.98V50C.04,22.39,22.43,0,50.04,0h361.52c27.61,0,50,22.39,50,50Z"/>
        <path d="m205.78,337.38c.03.37.04.74.04,1.11,0,10.92-8.65,19.77-19.31,19.77s-19.31-8.85-19.31-19.77c0-.35.01-.7.03-1.05h-.03c-.55-11.05-4.23-61.16-45.93-101.76-41.37-40.28-91.06-42.86-102.23-43.17h0c-10.03-.38-18.04-8.84-18.04-19.22s8.01-18.83,18.04-19.2c.19,0,.38-.01.57-.01h.28c102.75.45,185.9,82.34,185.93,183.3h-.04Z"/>
        <path d="m129.36,338.99c0,10.61-8.6,19.21-19.21,19.21s-19.21-8.6-19.21-19.21c-1.49-38.67-32-69.65-69.71-70.45h-.08c-.3.01-.6.02-.9.02-10.55,0-19.1-8.55-19.1-19.1s8.55-19.1,19.1-19.1c.16,0,.32,0,.48.01h0c59.99-.01,108.63,48.63,108.63,108.62Z"/>
        <circle cx="25.56" cy="333.64" r="25.56"/>
    </symbol>
    <symbol id="plyr-logo-vimeo" viewBox="0 0 448 512">
        <path d="M447.8 153.6c-2 43.6-32.4 103.3-91.4 179.1-60.9 79.2-112.4 118.8-154.6 118.8-26.1 0-48.2-24.1-66.3-72.3C100.3 250 85.3 174.3 56.2 174.3c-3.4 0-15.1 7.1-35.2 21.1L0 168.2c51.6-45.3 100.9-95.7 131.8-98.5 34.9-3.4 56.3 20.5 64.4 71.5 28.7 181.5 41.4 208.9 93.6 126.7 18.7-29.6 28.8-52.1 30.2-67.6 4.8-45.9-35.8-42.8-63.3-31 22-72.1 64.1-107.1 126.2-105.1 45.8 1.2 67.5 31.1 64.9 89.4z"/>
    </symbol>
    <symbol id="plyr-logo-youtube" viewBox="0 0 576 512">
        <path d="M549.655 124.083c-6.281-23.65-24.787-42.276-48.284-48.597C458.781 64 288 64 288 64S117.22 64 74.629 75.486c-23.497 6.322-42.003 24.947-48.284 48.597-11.412 42.867-11.412 132.305-11.412 132.305s0 89.438 11.412 132.305c6.281 23.65 24.787 41.5 48.284 47.821C117.22 448 288 448 288 448s170.78 0 213.371-11.486c23.497-6.321 42.003-24.171 48.284-47.821 11.412-42.867 11.412-132.305 11.412-132.305s0-89.438-11.412-132.305zm-317.51 213.508V175.185l142.739 81.205-142.739 81.201z"/>
    </symbol>
    <symbol id="plyr-muted" viewBox="0 0 515 410">
        <path d="m28.22,177.84v52.08c0,28.17,22.83,51,51,51h51.98l114.1,100.29c15.21,13.37,39.08,2.57,39.08-17.68v-63.87L65.56,128.7c-21.54,5.96-37.34,25.7-37.34,49.14Z"/>
        <path d="m506.75,375.8l-85.06-66.45c26.89-28.54,42.13-66.14,42.13-105.45,0-46.42-21.26-90.46-57.86-120.02-3.34-2.98-7.75-4.78-12.58-4.78-10.48,0-18.98,8.5-18.98,18.98,0,6.72,3.5,12.62,8.78,15.99,27.06,22.79,42.68,55.8,42.68,90.52,0,30.55-12.09,59.78-33.44,81.88l-31.27-24.42c.25-.22.5-.45.76-.68,5.11-4.72,11.35-11.7,16.42-21.35,1.54-2.93,9.08-17.72,9.03-36.43-.07-27.74-16.77-47.86-25.29-56.39-.01,0-.01-.01-.01-.01-1.53-1.53-2.8-2.69-3.66-3.45l-.69-.48c-3.07-2.04-6.76-3.23-10.72-3.23-10.75,0-19.46,8.71-19.46,19.45,0,5.33,2.14,10.14,5.6,13.65-.02.03-.04.05-.06.08,2.15,1.74,15.77,13.12,15.73,30.22-.02,8.75-3.61,15.87-4.64,17.87-3.03,5.87-6.86,9.87-9.59,12.27-.21.19-.41.38-.61.59-1.24,1.22-2.32,2.61-3.2,4.14l-46.38-36.24V46.39c0-20.25-23.87-31.05-39.08-17.68l-86.03,75.61L30.95,4.06C27.45,1.33,23.29,0,19.17,0,13.47,0,7.84,2.53,4.06,7.36-2.45,15.7-.97,27.73,7.36,34.25l118.51,92.59h-.47l158.98,124.21v-.38l198.79,155.31c8.33,6.52,20.37,5.04,26.88-3.3,6.51-8.33,5.03-20.37-3.3-26.88Z"/>
    </symbol>
    <symbol id="plyr-pause" viewBox="0 0 320 512">
        <path d="M48 64C21.5 64 0 85.5 0 112V400c0 26.5 21.5 48 48 48H80c26.5 0 48-21.5 48-48V112c0-26.5-21.5-48-48-48H48zm192 0c-26.5 0-48 21.5-48 48V400c0 26.5 21.5 48 48 48h32c26.5 0 48-21.5 48-48V112c0-26.5-21.5-48-48-48H240z"/>
    </symbol>
    <symbol id="plyr-pip" viewBox="0 0 430 360">
        <path d="m390.41,0H39.74C17.79,0,0,17.79,0,39.73v272.3c0,21.95,17.79,39.74,39.74,39.74h350.67c21.95,0,39.74-17.79,39.74-39.74V39.73c0-21.94-17.79-39.73-39.74-39.73Zm-3.15,303.99c0,3.02-2.45,5.47-5.47,5.47H49.53c-3.02,0-5.47-2.45-5.47-5.47V47.81c0-3.02,2.45-5.47,5.47-5.47h332.26c3.02,0,5.47,2.45,5.47,5.47v256.18Z"/>
        <rect x="195.26" y="156.1" width="156.48" height="117.12" rx="16" ry="16"/>
    </symbol>
    <symbol id="plyr-play" viewBox="0 0 384 512">
        <path d="M73 39c-14.8-9.1-33.4-9.4-48.5-.9S0 62.6 0 80V432c0 17.4 9.4 33.4 24.5 41.9s33.7 8.1 48.5-.9L361 297c14.3-8.7 23-24.2 23-41s-8.7-32.2-23-41L73 39z"/>
    </symbol>
    <symbol id="plyr-restart" viewBox="0 0 512 512">
        <path d="M125.7 160H176c17.7 0 32 14.3 32 32s-14.3 32-32 32H48c-17.7 0-32-14.3-32-32V64c0-17.7 14.3-32 32-32s32 14.3 32 32v51.2L97.6 97.6c87.5-87.5 229.3-87.5 316.8 0s87.5 229.3 0 316.8s-229.3 87.5-316.8 0c-12.5-12.5-12.5-32.8 0-45.3s32.8-12.5 45.3 0c62.5 62.5 163.8 62.5 226.3 0s62.5-163.8 0-226.3s-163.8-62.5-226.3 0L125.7 160z"/>
    </symbol>
    <symbol id="plyr-rewind" viewBox="0 0 512 512">
        <path d="M459.5 440.6c9.5 7.9 22.8 9.7 34.1 4.4s18.4-16.6 18.4-29V96c0-12.4-7.2-23.7-18.4-29s-24.5-3.6-34.1 4.4L288 214.3V256v41.7L459.5 440.6zM256 352V256 128 96c0-12.4-7.2-23.7-18.4-29s-24.5-3.6-34.1 4.4l-192 160C4.2 237.5 0 246.5 0 256s4.2 18.5 11.5 24.6l192 160c9.5 7.9 22.8 9.7 34.1 4.4s18.4-16.6 18.4-29V352z"/>
    </symbol>
    <symbol id="plyr-settings" viewBox="0 0 410 410">
        <path d="m403.33,169.97c-11.21-10.91-30.64-.92-38.26-12.75-2.13-3.3-1.86-6-6.84-15.25-1.34-2.5-2.89-5.15-4.12-9.21,0,0-1.34-4.44-1.57-8.96-.6-11.94,14.94-19.53,16.39-31.91,1.06-8.98-5.88-16.23-19.75-30.73-14.43-15.08-21.64-22.61-30.81-21.81-13.75,1.2-24.9,20.32-34.56,17.89-.38-.09-3.01-.79-6.38-1.96-4.08-1.43-4.43-1.85-8.94-3.62-4.19-1.64-7.63-2.93-9.84-3.75-1.24-.59-3.34-1.71-5.49-3.63-11.49-10.23-4.32-25.27-12.35-35.59C233.85-.26,219.96-.13,202.96.05c-16.46.19-28.71.32-35.59,8.64-9.23,11.17-.18,26.64-11.47,35.97-1.49,1.23-5.37,3.09-13.11,6.82-9.17,4.4-13.75,6.61-16,7-14.79,2.57-20.83-17.53-36.76-17.69-8.2-.09-14.96,6.22-28.49,18.83-14.86,13.86-22.3,20.8-22.58,29.72-.51,16.41,20.49,23.83,17.33,39.9-.41,2.06-2.05,5.9-5.35,13.58-4,9.32-6,13.98-7.61,15.84-9.04,10.43-23.99.45-34.97,9.26C.19,174.46.12,186.65.02,204.74c-.11,18.67-.17,29.18,7.1,36,11.54,10.82,30.03,1.58,38.59,14.03,1.02,1.48,2.42,5.22,5.23,12.71,3.62,9.66,5.44,14.5,5.67,17.38,1.13,14.09-15.56,17.54-17.15,31.84-1.29,11.6,8.37,21.42,20.46,33.71,12.27,12.49,20.06,20.41,30.31,19.93,15.63-.73,21.9-20.25,36.38-17.65,1.18.21,5.39,1.98,13.82,5.51,8.97,3.77,13.46,5.65,14.54,6.43,12.08,8.65,2.17,27.09,12.82,38.42,6.13,6.53,15.81,6.54,35.17,6.58,20.68.04,32.03.06,38.06-7.61,8.18-10.41-.4-26.17,10.29-35.38,2.65-2.3,5.54-3.35,7.53-3.88,2.22-.79,5.52-2.01,9.5-3.62,9.52-3.85,11.03-5.15,13.41-5.87,12.74-3.89,21.26,17.47,37.65,17.69,9.07.12,16.04-6.83,29.99-20.73,13.67-13.63,20.51-20.44,20.38-29.29-.23-15.82-20.77-22.25-18.08-36.79.42-2.25.78-1.38,6.39-15,5.37-13.06,4.54-12.63,5.75-14.42,8.24-12.15,26.89-2.59,38.33-13.51,6.38-6.09,6.57-15.87,6.94-35.42.37-19.77.56-29.66-5.77-35.83Zm-198.6,100.72c-35.95,0-65.09-29.14-65.09-65.09s29.14-65.08,65.09-65.08,65.09,29.14,65.09,65.08-29.14,65.09-65.09,65.09Z"/>
    </symbol>
    <symbol id="plyr-streamtape" viewBox="0 0 640 512">
        <path fill="currentColor"
            d="M224 192c-35.3 0-64 28.7-64 64s28.7 64 64 64 64-28.7 64-64-28.7-64-64-64zm400 224H380.6c41.5-40.7 67.4-97.3 67.4-160 0-123.7-100.3-224-224-224S0 132.3 0 256s100.3 224 224 224h400c8.8 0 16-7.2 16-16v-32c0-8.8-7.2-16-16-16zm-400-64c-53 0-96-43-96-96s43-96 96-96 96 43 96 96-43 96-96 96z" />
    </symbol>
    <symbol id="plyr-volume-down" viewBox="0 0 448 512">
        <path d="M301.1 34.8C312.6 40 320 51.4 320 64V448c0 12.6-7.4 24-18.9 29.2s-25 3.1-34.4-5.3L131.8 352H64c-35.3 0-64-28.7-64-64V224c0-35.3 28.7-64 64-64h67.8L266.7 40.1c9.4-8.4 22.9-10.4 34.4-5.3zM412.6 181.5C434.1 199.1 448 225.9 448 256s-13.9 56.9-35.4 74.5c-10.3 8.4-25.4 6.8-33.8-3.5s-6.8-25.4 3.5-33.8C393.1 284.4 400 271 400 256s-6.9-28.4-17.7-37.3c-10.3-8.4-11.8-23.5-3.5-33.8s23.5-11.8 33.8-3.5z"/>
    </symbol>
    <symbol id="plyr-volume" viewBox="0 0 440 370">
        <path d="m217.08,5.91l-111.65,98.13h-54.43C22.83,104.04,0,126.87,0,155.04v52.08c0,28.17,22.83,51,51,51h51.98l114.1,100.29c15.21,13.37,39.08,2.57,39.08-17.68V23.59c0-20.25-23.87-31.05-39.08-17.68Z"/>
        <path d="m377.74,61.08c-3.34-2.98-7.75-4.78-12.58-4.78-10.48,0-18.98,8.5-18.98,18.98,0,6.72,3.5,12.62,8.78,15.99,27.06,22.79,42.68,55.8,42.68,90.52s-15.71,67.94-42.94,90.72c-.3.26-.61.52-.92.76-.36.32-.7.64-1.02.99-3.18,3.29-5.14,7.78-5.14,12.73,0,10.14,8.22,18.36,18.36,18.36,3.68,0,7.1-1.08,9.97-2.95l.07.09c37.65-29.55,59.58-74.24,59.58-121.39s-21.26-90.46-57.86-120.02Z"/>
        <path d="m359.14,180.79c-.07-27.74-16.77-47.86-25.29-56.39-.01,0-.01,0-.01,0-1.53-1.53-2.8-2.69-3.66-3.45l-.69-.48c-3.07-2.04-6.76-3.23-10.72-3.23-10.75,0-19.46,8.71-19.46,19.45,0,5.33,2.14,10.14,5.6,13.65-.02.03-.04.05-.06.08,2.15,1.74,15.77,13.12,15.73,30.22-.02,8.75-3.61,15.87-4.64,17.87-3.03,5.87-6.86,9.87-9.59,12.27-.21.19-.41.38-.61.59-3.58,3.53-5.79,8.44-5.79,13.86,0,10.77,8.74,19.51,19.51,19.51,3.22,0,6.25-.78,8.93-2.17.84-.43,1.65-.92,2.41-1.47.01,0,.01-.01.01-.01.91-.75,1.87-1.59,2.88-2.51,5.11-4.72,11.35-11.7,16.42-21.35,1.54-2.93,9.08-17.72,9.03-36.43Z"/>
    </symbol>
</svg>