<?xml version="1.0" encoding="UTF-8"?>
<svg id="VarDark" xmlns="http://www.w3.org/2000/svg" xmlns:xlink="http://www.w3.org/1999/xlink" viewBox="0 0 1000 350">
  <defs>
    <filter id="drop-shadow-4" filterUnits="userSpaceOnUse">
      <feOffset dx="8" dy="8"/>
      <feGaussianBlur result="blur" stdDeviation="4"/>
      <feFlood flood-color="#000" flood-opacity=".65"/>
      <feComposite in2="blur" operator="in"/>
      <feComposite in="SourceGraphic"/>
    </filter>
    <linearGradient id="Degradado_sin_nombre_39" data-name="Degradado sin nombre 39" x1="317.92" y1="307.39" x2="37.93" y2="27.4" gradientUnits="userSpaceOnUse">
      <stop offset=".23" stop-color="#32cd32"/>
      <stop offset=".5" stop-color="#007dc1"/>
      <stop offset=".77" stop-color="orange"/>
    </linearGradient>
    <linearGradient id="Degradado_sin_nombre_30" data-name="Degradado sin nombre 30" x1="499.99" y1="360.33" x2="294.36" y2="154.7" gradientUnits="userSpaceOnUse">
      <stop offset=".23" stop-color="orange"/>
      <stop offset=".5" stop-color="#007dc1"/>
      <stop offset=".77" stop-color="#32cd32"/>
    </linearGradient>
    <linearGradient id="Degradado_sin_nombre_25" data-name="Degradado sin nombre 25" x1="64.7" y1="179" x2="-141.53" y2="-27.23" gradientUnits="userSpaceOnUse">
      <stop offset=".23" stop-color="orange"/>
      <stop offset=".5" stop-color="#007dc1"/>
      <stop offset=".77" stop-color="#32cd32"/>
    </linearGradient>
  </defs>
  <g style="filter: url(#drop-shadow-4);">
    <path d="m270.43,244.87c-.46,0-.93.02-1.38.07l-3.47-6.88.27-4.33c5.86-4.17,11.62-8.34,17.29-12.5-.07-33.95-.14-67.9-.21-101.85-5.99-4.83-11.65-9.2-16.93-13.13l-.41-5.24,2.52-5.39c.65.08,1.3.13,1.97.13,8.56,0,15.49-6.94,15.49-15.49s-6.94-15.48-15.49-15.48-15.49,6.93-15.49,15.48c0,4.02,1.53,7.68,4.04,10.43l-4.61,6.26-.4.35c-4.3-3.02-8.21-5.65-11.64-7.92-11.71-7.73-20.35-12.75-37.02-24.09-6.39-4.34-12-8.3-16.65-11.62v-4.08c4.85-2.62,8.15-7.74,8.15-13.64,0-8.56-6.94-15.49-15.49-15.49s-15.48,6.94-15.48,15.49c0,5.9,3.29,11.03,8.15,13.64v4.08c-9.95,6.94-18.2,12.51-24.09,16.45-18.47,12.34-26.85,17.29-41.14,27.23l-4.79-7.45c2.28-2.69,3.66-6.18,3.66-9.99,0-8.56-6.94-15.49-15.49-15.49s-15.48,6.94-15.48,15.49,6.94,15.48,15.48,15.48c.58,0,1.15-.03,1.71-.1l2.99,5.57-.26,5.13c-7.27,5.3-13.13,9.78-17.2,12.95v102.95c4.54,3.33,10.48,7.62,17.55,12.57l.22,5.8-2.95,4.91c-.68-.09-1.36-.14-2.06-.14-8.55,0-15.48,6.94-15.48,15.48s6.94,15.49,15.48,15.49,15.49-6.94,15.49-15.49c0-4.32-1.77-8.24-4.64-11.05l4.9-7.44c7.66,5.22,13.71,9.18,18.8,12.5,10.15,6.62,26.14,17,47.75,30.79v5.84c-5.02,2.56-8.45,7.78-8.45,13.8,0,8.55,6.94,15.48,15.49,15.48s15.48-6.94,15.48-15.48c0-6.02-3.44-11.24-8.45-13.8v-5.73c18.22-11.29,36.86-23.4,55.79-36.38,3.54-2.43,7.04-4.84,10.52-7.27l.03.05,5.16,7.44c-2.9,2.81-4.7,6.75-4.7,11.1,0,8.55,6.94,15.48,15.49,15.48s15.49-6.94,15.49-15.48-6.94-15.49-15.49-15.49Zm-82.14-173.24c26.53,18.04,53.05,36.07,79.58,54.1-.1,5.7-.2,11.39-.29,17.08-5.26-.11-10.52-.23-15.77-.34v-8.71c-21.17-13.77-42.35-27.55-63.52-41.33v-20.81Zm-14.24,38.77h.08c2.16-1.46,4.33-2.92,6.49-4.38,2.15,1.46,4.31,2.92,6.46,4.38h.11l13.17,9c.23.15.46.31.69.47h0l35.05,23.93v18.07h-16.06v-10.59l-38.7-25.55-39.06,25.92v10.22h-17.16v-18.25l33.65-22.85,15.27-10.37Zm30.48,59.14c0,13.2-10.71,23.91-23.91,23.91s-23.91-10.71-23.91-23.91,10.71-23.91,23.91-23.91,23.91,10.71,23.91,23.91Zm-110.06-43.81c26.38-17.89,52.77-35.78,79.14-53.66v20.15c-20.95,14.38-41.91,28.76-62.86,43.15v49.06c-5.43-.09-10.85-.19-16.28-.29v-58.41Zm79.58,141.64l-79.58-52.93v-17.16h15.33v8.76l64.25,42.35v18.98Zm7.3-32.86l-56.22-37.24v-21.54h16.79v13.14l38.7,25.55,38.7-25.19v-13.51h16.79v21.54l-54.76,37.24Zm6.78,33.11v-19.4c21.23-14.18,42.45-28.37,63.68-42.55-.12-16.67-.24-33.34-.37-50.01h16.43v58.41c-26.58,17.85-53.16,35.71-79.74,53.56Z" style="fill: url(#Degradado_sin_nombre_39); stroke-width: 0px;"/>
    <circle cx="308.6" cy="168.94" r="15.49" style="fill: url(#Degradado_sin_nombre_30); stroke-width: 0px;"/>
    <circle cx="53.74" cy="168.05" r="15.49" style="fill: url(#Degradado_sin_nombre_25); stroke-width: 0px;"/>
  </g>
  <text transform="translate(343.83 183) scale(1.09 1)" style="fill: #fff; font-family: Gugi-Regular, Gugi; font-size: 100px; stroke: #fff; stroke-miterlimit: 10; stroke-width: 2px;"><tspan x="0" y="0">CodeTech</tspan></text>
  <text transform="translate(352.45 240.64) scale(.64 1)" style="fill: orange; font-family: FlorensaDemo-Regular, &apos;Florensa Demo&apos;; font-size: 57px; stroke: orange; stroke-miterlimit: 10;"><tspan x="0" y="0">TRANS</tspan><tspan x="176.36" y="0" style="letter-spacing: -.02em;">F</tspan><tspan x="205.88" y="0" style="letter-spacing: 0em;">ORMANDO EL MUNDO</tspan></text>
</svg>